<?xml version="1.0" encoding="UTF-8" standalone="no"?>
<!DOCTYPE svg PUBLIC "-//W3C//DTD SVG 1.1//EN" "http://www.w3.org/Graphics/SVG/1.1/DTD/svg11.dtd">
<svg width="100%" height="100%" viewBox="0 0 1200 1200" version="1.1" xmlns="http://www.w3.org/2000/svg" xml:space="preserve" style="fill-rule:evenodd;clip-rule:evenodd;stroke-linejoin:round;stroke-miterlimit:2;">
    <defs>
      <clipPath id="sombra-disco"><use href="#amarelo" transform="matrix(1.022966,0,0,1.022966,17.932091,29.689307)"/><use href="#azul-claro" transform="matrix(1.022966,0,0,1.022966,17.932091,29.689307)"/></clipPath>
      <filter id="sombra-violino" x="-15%" y="-15%" width="130%" height="140%" color-interpolation-filters="sRGB"><feGaussianBlur in="SourceGraphic" stdDeviation="20"/><feOffset dy="24"/><feColorMatrix type="matrix" values="0.45 0 0 0 0 0 0.45 0 0 0 0 0 0.45 0 0 0 0 0 0.55 0"/></filter>
      <filter id="sombra-cordas" x="-15%" y="-15%" width="130%" height="140%" color-interpolation-filters="sRGB"><feGaussianBlur in="SourceGraphic" stdDeviation="7"/><feOffset dy="7"/><feColorMatrix type="matrix" values="0.2 0 0 0 0 0 0.2 0 0 0 0 0 0.2 0 0 0 0 0 0.55 0"/></filter>
      <filter id="sombra-clave" x="-15%" y="-15%" width="130%" height="140%" color-interpolation-filters="sRGB"><feGaussianBlur in="SourceGraphic" stdDeviation="20"/><feOffset dy="24"/><feColorMatrix type="matrix" values="0 0 0 0 0 0 0 0 0 0 0 0 0 0 0 0 0 0 0.55 0"/></filter>
      <filter id="sombra-arco" x="-15%" y="-15%" width="130%" height="140%" color-interpolation-filters="sRGB"><feGaussianBlur in="SourceGraphic" stdDeviation="20"/><feOffset dy="26"/><feColorMatrix type="matrix" values="0.08 0 0 0 0 0 0.08 0 0 0 0 0 0.08 0 0 0 0 0 0.55 0"/></filter>
    </defs>
    <!-- Camadas de trás para a frente. Cada forma é inteira, inclusive onde outra camada a cobre:
         o ícone do macOS (Liquid Glass) usa cada g#camada-* como uma camada separada. -->
    <g id="camada-fundo" transform="matrix(1.022966,0,0,1.022966,17.932091,29.689307)">
        <path id="amarelo" d="M700.36,1095.85C695.1,1096.92 659.41,1103.6 655.36,1104.38C651.12,1105.19 643.84,1106.43 631.78,1107.86C625.92,1108.56 609.91,1110.14 609.91,1110.14C609.67,1110.17 609.42,1110.2 609.17,1110.23L595.47,1111.31C576.85,1112.49 558.16,1113.34 539.51,1112.73C495.45,1111.29 451.81,1104.55 409.41,1092.84C386.47,1086.48 363.92,1078.68 341.91,1069.56L331.13,1064.83C331.16,1064.8 331.19,1064.78 331.22,1064.76L327.05,1063.15L323.02,1061.6L315.6,1058.2L315.63,1058.1L309.13,1055.22L297.49,1048.76L291.56,1045.3L279.26,1038.47C241.69,1016.38 208.5,991.02 177.68,961.18C167.78,951.44 158.2,941.36 148.84,931.05L123.29,902.29C121.95,900.65 120.63,899 119.32,897.35C114.98,891.72 110.83,885.94 106.67,880.18C77.46,839.72 56.68,798.49 38.8,752.04C38.28,750.7 37.77,749.36 37.27,748.02C26.49,718.53 18.13,688.16 12.35,657.32C8.54,636.59 5.87,615.66 4.3,594.77C3.45,582.8 3,570.8 2.96,558.78C2.88,535.03 4.37,510.98 7.47,487.09C9.31,473.38 11.68,459.86 14.58,446.75C18.36,429.66 22.45,412.67 27.69,395.99C28.21,394.39 28.73,392.8 29.26,391.21C30.7,386.91 32.23,382.65 33.84,378.42L46.65,347.04L53.22,331.5C56.04,325.05 58.96,318.64 62.02,312.3L77.36,283.42C78.7,281.1 80.06,278.79 81.44,276.48C81.55,276.47 81.65,276.46 81.74,276.4L89.38,264.08L108.85,235.62C129.9,207.1 153.12,180.63 178.96,156.36C184.29,151.36 189.72,146.46 195.26,141.67C258.65,87.08 333.72,47.73 414.38,24.79C420.05,23.2 425.73,21.68 431.43,20.24C458.96,13.25 487.06,8.08 515.35,5.19C522.69,4.46 530.05,3.89 537.41,3.48C537.94,3.45 538.46,3.42 538.99,3.39L543.9,3.31L563.23,8.18C562.9,7.92 562.58,7.64 562.27,7.36C562.27,7.36 547.15,3.35 546.97,3.12C546.97,3.12 548.83,2.83 559.79,2.72C570.43,2.58 590.84,2.96 593.29,3.09C604.39,3.7 621.42,5.11 642.54,8.01C666.15,11.26 696.53,17.14 705.44,20.1L705.73,19.89L706.72,20.8L708.68,32.03L712.87,53.12C717.51,74.99 729.17,142.32 736.01,163.59C740.39,177.17 745.5,190.72 751.19,203.8L759.31,222.07C759.3,222.32 759.07,222.52 759.07,222.77L770.28,243.96L784.07,270.02C784.29,270.15 784.61,270.05 784.84,270.17L788.55,276.11L797.15,289C806.18,302.13 816.23,314.8 827.24,326.34C839.26,338.93 851.89,349.24 865.76,359.65C868.94,362.05 870.63,365.99 872.44,369.44L881.07,386.37C882.01,388.4 884.1,394.51 886.21,396.08L885.9,396.17L886.65,398.41L887.7,399.62L888.22,400.24L888.75,400.87L889.27,401.52L889.77,402.2L890.27,402.91L890.75,403.65L891.21,404.44L891.65,405.28L892.06,406.18L892.45,407.13L892.8,408.16L901.78,437.35L902.04,438.22L902.28,439.1L902.51,439.99L902.71,440.89L902.83,442.96L903.07,447.09L903.24,447.36L905.69,460.56C907.25,470.29 908.36,480.03 908.87,489.87L909.14,506.37C909.27,506.6 909.6,506.69 909.72,506.93L906.96,535.27L905.32,552.18C905.21,552.37 904.93,552.44 904.82,552.63L903.72,560.05L901.17,576.35C900.35,583.12 899.53,589.95 899.51,596.78L899.99,611.22L899.55,612.64L886.67,614.08C876.98,615.49 867.07,619.56 859,625.07C840.33,637.84 827.68,658.71 821.1,680.05L816.73,697.5L815.37,706.89C815.22,707.11 814.89,707.17 814.76,707.4L815.14,727.87L815.35,738.84C815.49,739.06 815.81,739.11 815.95,739.33L816.98,745.74L820.5,759.8C824.82,773.38 831.89,786.37 841.35,797.07C853.73,811.08 869.95,820.14 888.24,823.74C891.88,824.45 905.89,824.63 907.5,825.56C909.34,826.64 910.01,829.12 910.31,831.08C911.11,836.35 909.29,839.17 907.17,842.45L907.17,842.46C906.29,843.83 905.36,845.27 904.54,847.01C901.63,853.14 899.82,859.96 899.39,866.73C898.85,875.41 899.41,884.11 899.97,892.81L899.97,892.81L899.99,893.06C900.4,899.27 900.81,905.48 900.81,911.69C900.84,934.61 897.55,957.8 890.17,979.55C888.08,985.71 885.77,991.79 882.99,997.67L878.39,1007.11C878.38,1007.21 878.42,1007.32 878.45,1007.43L878.46,1007.45C878.51,1007.56 878.55,1007.68 878.54,1007.8L870.23,1020.26L861.37,1033.54C832.43,1050.83 803.42,1064.66 771.05,1076.3L763.45,1078.97L763.45,1078.97L755.04,1081.92C752.35,1082.72 749.75,1083.44 747.25,1084.07C742.46,1085.28 709.12,1093.9 701.3,1095.65C700.99,1095.72 700.67,1095.79 700.36,1095.85Z" style="fill:rgb(251,207,2);"/>
        <path id="azul-claro" d="M1135.06,562.49C1135.27,623.38 1125.75,684.04 1105.02,741.21L1098.32,758.61C1098.03,759.32 1097.74,760.03 1097.45,760.73L1095.52,765.31C1093.24,770.65 1090.87,775.96 1088.4,781.22L1077.77,802.04L1071.1,815.11C1068.95,819 1066.77,822.86 1064.55,826.71L1064.4,826.96L1059.99,834.47L1049.68,851.17C1047.14,855.14 1044.56,859.06 1041.94,862.95C1038.29,868.35 1034.56,873.69 1030.76,878.97C1007.72,910.81 981.75,939.96 953.04,966.12C929.03,987.76 903.23,1007.17 875.69,1024.7C872.36,1026.83 869.03,1028.9 865.7,1030.93C865.38,1030.35 865.15,1029.73 865.11,1029.01L865.77,1025.66L875.55,1010.65C881.53,1001.06 887.29,985.78 890.85,974.94L894.61,961.52L895.72,956.18C895.87,955.99 896.16,955.95 896.29,955.76L898.75,936.61L900.52,922.84C900.42,922.61 900.11,922.51 900,922.28L900,907.28L899.96,893.78L899.05,888.41L899,876.41C899,875.56 899,874.73 898.99,873.92L898.99,873.88C898.97,868.06 898.95,863.15 900.24,857.08C900.48,855.95 900.86,854.68 901.26,853.34L901.28,853.28C902.21,850.13 903.25,846.66 902.74,844.01C901.23,836.22 896.44,828.88 889,825.59L880.91,823.13L868.26,818.53C860.62,815.44 853.8,810.12 847.52,804.9C844.3,802.21 841.68,799 839.08,795.75L833.53,788.72C827.47,779.85 821.69,768.1 819.15,757.64C817.7,751.66 816.28,745.76 815.21,739.71L814.57,731.29C814.44,731.09 814.17,731.02 814.05,730.81L814.06,723.37L814.09,709.94C814.79,708.72 814.82,709.14 814.94,707.51L815.1,702.02L816.79,693.76C820.07,677.4 826.71,659.84 836.54,646.23L842.85,638.53L845.25,635.35C848.05,632.08 851.84,629 855.33,626.48C861.15,622.26 867.47,618.93 874.23,616.51C883.6,613.14 889.43,613.2 895.4,603.89C897.39,600.78 898.77,596.84 898.96,593.14L899.15,588.66L899.92,584.77L900.13,578.79L900.85,575.4L903.14,558.71L905.89,542.09L906.15,537.62L906.92,533.74L907.13,528.76L907.91,524.87L908.07,514.39L908.99,508.52L908.9,495.03L908.07,490.65L907.91,481.17L907.14,477.28L906.87,470.81L903.23,449.82L902.71,440.89C901.93,437.28 900.73,433.89 898.77,430.74C897.79,429.16 896.55,427.93 896.05,426.09L894.15,418.38C893.55,414.27 894.03,411.34 892.45,407.13C890.15,400.99 885.99,398.71 883.53,394.02L881.01,388.06C877.41,380.35 871.48,367.17 865.73,361.25C863.36,358.81 860.52,357.25 857.86,355.17L847.37,346.77L842.69,342.28C841.59,341.33 841.58,341.33 841.19,341.3C841.02,341.28 840.77,341.26 840.32,341.15L835.53,336.09L813.94,313.3C813.91,313.18 813.93,313.06 813.95,312.94C813.97,312.83 813.99,312.71 813.96,312.6L810.05,308.08L798.68,292.95C790,281.25 781.22,266.38 774.25,253.56L771.67,249.29C766.79,240.2 762.4,230.82 758.18,221.43L754.68,214.25C744.97,191.87 736.33,168.94 729.62,145.48L725.16,130.7C721.27,114.78 717.25,98.9 714.22,82.78L712.74,73.98L710.35,65.35C709.25,61.06 708.87,56.98 706.42,53.15C701.62,45.64 694.67,42.83 687.01,39L675.83,33.42C675.68,33.2 675.76,32.87 675.6,32.66L652.46,23.44L633.94,16.06C633.73,16.07 633.54,16.26 633.32,16.27L627.16,14.28L611.34,9.85C609,9.29 604.22,8.63 602.47,7.06C601.68,6.34 601.23,5.16 601,3.71C625.55,5.21 650.08,8.33 674.34,13C733.36,24.57 791.14,45.51 843.22,73.96C852.63,79.1 861.98,84.42 871.1,90.08C877.47,94.09 883.75,98.22 889.93,102.49C891.63,103.66 893.33,104.85 895.02,106.05C923.25,126.15 949.46,149.17 973.46,174.11C999.27,200.93 1022.68,230.43 1043.16,261.6C1052.96,276.6 1062.08,291.99 1070.47,307.68C1070.61,307.94 1070.75,308.2 1070.88,308.46L1078.11,322.45C1078.39,323.01 1078.88,324 1079.45,325.19L1080.06,326.43L1080.7,327.75L1081.35,329.1L1081.99,330.42L1082.59,331.66L1083.13,332.77L1083.57,333.7L1083.91,334.39L1084.1,334.79C1084.61,335.87 1085.11,336.95 1085.61,338.03C1086.11,339.11 1086.61,340.19 1087.1,341.27L1088.56,344.52L1088.57,344.53L1088.57,344.53L1090.01,347.79L1105.02,385.99C1124.76,442.6 1134.85,502.34 1135.06,562.49Z" style="fill:rgb(0,184,253);"/>
    </g>
    <g clip-path="url(#sombra-disco)"><use href="#camada-violino" filter="url(#sombra-violino)"/></g>
    <g id="camada-violino" transform="matrix(1.022966,0,0,1.022966,17.932091,29.689307)">
        <path id="corpo" d="M700.36,1095.85C695.1,1096.92 659.41,1103.6 655.36,1104.38C651.12,1105.19 643.84,1106.43 631.78,1107.86C625.92,1108.56 609.91,1110.14 609.91,1110.14C609.67,1110.17 609.42,1110.2 609.17,1110.23L595.47,1111.31C576.85,1112.49 558.16,1113.34 539.51,1112.73C495.45,1111.29 451.81,1104.55 409.41,1092.84C386.47,1086.48 363.92,1078.68 341.91,1069.56L331.13,1064.83C331.16,1064.8 331.19,1064.78 331.22,1064.76L323.02,1061.6L315.6,1058.2C316.83,1054.09 318.16,1053.61 320.53,1052.75C321.92,1052.24 323.68,1051.6 326,1050C335.67,1043.33 352.67,1046.67 370,1040C387.33,1033.33 416.33,1023.33 430,1010C443.67,996.67 447,981.67 452,960C457,938.33 459.5,933.33 460,880C460.5,826.67 458.33,696.67 455,640C451.67,583.33 442.5,571.67 440,540C437.5,508.33 435.83,473.33 440,450C444.17,426.67 453.33,416.67 465,400C476.67,383.33 494.83,366.67 510,350C525.17,333.33 542.67,318.33 556,300C569.33,281.67 582.33,265 590,240C597.67,215 602,180 602,150C602,120 597,91.67 590,60C587.61,49.19 583.94,36.05 579.94,22.77C577.86,20.45 575.66,18.15 573.32,15.83C569.99,12.53 565.71,10.47 562.27,7.36C562.27,7.36 547.15,3.35 546.97,3.12C546.97,3.12 548.83,2.83 559.79,2.72C570.43,2.58 590.84,2.96 593.29,3.09C604.39,3.7 621.42,5.11 642.54,8.01C666.84,11.35 698.32,17.49 706.17,20.35C707.62,20.88 712.45,64.81 712.35,66.53L711.21,70.75L711,76.22L711.04,102.21L711.97,108.08L711.75,116.11L713.01,127.94L717.82,173.26C717.96,173.47 718.27,173.5 718.42,173.69L720.35,185.43L722.3,196.16L727.15,217.47L728.81,223.2C732.26,237.02 736.31,250.8 741.25,264.18L745.74,275.8L751.64,291.16C762.4,316.31 775.7,340.58 791.14,363.19L806.96,384.94L813.11,392.78L822.76,406.7C822.96,407.03 823.19,407.39 823.43,407.77C824.36,409.22 825.45,410.94 825.83,412.64L837.7,435.13C839.17,436.63 839.3,438.9 841.06,440.27L843.21,441.42C843.44,441.59 843.55,441.91 843.81,442.03L851.84,439.91L867.13,435.87C871.64,437.19 873.04,443.45 874.27,447.35C874.92,449.42 875.26,451.56 873.88,453.42L872.88,454.51C872.75,454.71 872.77,455 872.61,455.18L867.47,456.79L851.4,461.81C851.24,461.99 851.26,462.28 851.14,462.48C850.29,463.85 849.3,464.5 849.1,466.25C848.67,469.81 849.65,473.83 850.6,477.71C851.11,479.82 851.62,481.9 851.88,483.84L852.92,490.19L853.12,495.17L853.95,499.55L854.06,509.54L854.94,514.42L854.85,522.39L854.02,527.27L853.92,537.77L853.15,541.65L852.81,545.61C850.83,557.27 847.84,568.54 843.91,579.72C840.37,589.81 832.75,604.73 826.18,613.13L819.94,619.59L810.27,631.62C797.27,650.37 788.81,668.46 782.65,690.42L780.25,699.04L777.09,716.1L776.89,721.08L776.06,725.46L776,741.46L776.1,751.95L776.88,755.83L777.14,760.31L778.76,768.07L779.17,771.52C779.11,771.76 778.86,771.92 778.82,772.16L780.86,778.27L787.45,798.1C787.66,798.27 787.98,798.22 788.19,798.38L793.17,808.18C797.23,815.08 801.82,821.53 806.65,827.91L819.94,841.46L823.67,846.13L827.4,850.16L831.98,857.86L835.89,864.81L838.32,871.36C841.91,880.87 844.39,890.57 845.85,900.64L846.12,905.11L846.97,909.99L846.94,939.48L846.12,943.86L845.85,949.33C843.35,966.9 838.55,982.6 831.62,998.89L829.74,1003.5L824.69,1012.68L821.68,1018.43L813.47,1030.33L810.08,1035.25C802.95,1044.16 789.08,1058.16 780.13,1065.18L768.46,1073.7C766.77,1074.82 763.96,1076.4 763.25,1078.38L763.45,1078.97L755.04,1081.92C752.35,1082.72 749.75,1083.44 747.25,1084.07C742.23,1085.34 705.89,1094.73 700.36,1095.85Z" style="fill:rgb(0,101,231);"/>
        <path id="contorno" d="M861.37,1033.54C832.43,1050.83 803.42,1064.66 771.05,1076.3L759.62,1080.31C759.5,1079.74 759.47,1079.23 759.58,1078.82C759.99,1077.18 762.1,1076.15 763.39,1075.27L773.35,1068.58C784.23,1060.78 794.46,1051.46 803.17,1041.29C829.52,1010.53 843.86,972.99 846.06,932.66C847.54,905.61 842.73,877.1 828.2,853.92L822.36,846.45C821.54,846.01 821.09,845.57 820.43,844.83L807.36,830.37L799.33,821.48C799.31,821.36 799.34,821.23 799.38,821.1L799.39,821.06C799.42,820.95 799.45,820.84 799.42,820.73L796.35,816.17L790.35,805.79C785.02,795.57 780.91,784.81 778.49,773.52C769.14,730 777.81,683.13 800.2,644.8C804.36,637.66 808.93,630.5 814.26,624.16L827.43,609.13C837.37,594.89 844.09,578.02 848.41,561.28C854.08,539.25 854.57,516.28 852.11,493.76C851.27,486.11 849.61,478.65 848.14,471.12C848.03,470.51 847.85,469.84 847.67,469.13L847.66,469.08C847.19,467.23 846.66,465.14 846.84,463.34L826.22,416.34L825.25,416.64L825.25,414.64L825.19,414.65C821.66,405.18 807.71,388.01 801.1,379.32C789.4,363.93 778.98,347.58 769.54,330.73C763.04,319.14 757.02,307.11 751.85,294.87L744.76,277.25C744.59,277.08 744.29,277.1 744.12,276.93L736.14,252.21L727.39,225.11C727.44,224.86 727.73,224.7 727.79,224.45L726.05,217.67L722.33,201.6C718.63,183.66 715.5,165.55 713.84,147.3C712.05,127.52 704.84,61.92 704.46,42.04L704.18,27.55C704.17,27.09 704.14,26.59 704.1,26.08L704.1,26C703.98,24.21 703.84,22.16 704.59,20.72L705.73,19.89L706.72,20.8L708.68,32.03L712.87,53.12C717.51,74.99 729.17,142.32 736.01,163.59C740.39,177.17 745.5,190.72 751.19,203.8L759.31,222.07C759.3,222.32 759.07,222.52 759.07,222.77L770.28,243.96L784.07,270.02C784.29,270.15 784.61,270.05 784.84,270.17L788.55,276.11L797.15,289C806.18,302.13 816.23,314.8 827.24,326.34C839.26,338.93 851.89,349.24 865.76,359.65C868.94,362.05 870.63,365.99 872.44,369.44L881.07,386.37C882.01,388.4 884.1,394.51 886.21,396.08L885.9,396.17L902.95,446.9L903.24,447.36L905.69,460.56C907.25,470.29 908.36,480.03 908.87,489.87L909.14,506.37C909.27,506.6 909.6,506.69 909.72,506.93L906.96,535.27L905.32,552.18C905.21,552.37 904.93,552.44 904.82,552.63L903.72,560.05L901.17,576.35C900.35,583.12 899.53,589.95 899.51,596.78L899.99,611.22L899.55,612.64L886.67,614.08C876.98,615.49 867.07,619.56 859,625.07C840.33,637.84 827.68,658.71 821.1,680.05L816.73,697.5L815.37,706.89C815.22,707.11 814.89,707.17 814.76,707.4L815.14,727.87L815.35,738.84C815.49,739.06 815.81,739.11 815.95,739.33L816.98,745.74L820.5,759.8C824.82,773.38 831.89,786.37 841.35,797.07C853.73,811.08 869.95,820.14 888.24,823.74C891.88,824.45 905.89,824.63 907.5,825.56C909.34,826.64 910.01,829.12 910.31,831.08C911.11,836.35 909.29,839.17 907.17,842.45L907.17,842.46C906.29,843.83 905.36,845.27 904.54,847.01C901.63,853.14 899.82,859.96 899.39,866.73C898.85,875.41 899.41,884.11 899.97,892.81L899.97,892.81L899.99,893.06C900.4,899.27 900.81,905.48 900.81,911.69C900.84,934.61 897.55,957.8 890.17,979.55C888.08,985.71 885.77,991.79 882.99,997.67L878.39,1007.11C878.38,1007.21 878.42,1007.32 878.45,1007.43L878.46,1007.45C878.51,1007.56 878.55,1007.68 878.54,1007.8L870.23,1020.26Z" style="fill:rgb(6,6,5);"/>
    </g>
    <g clip-path="url(#sombra-disco)"><use href="#camada-cordas" filter="url(#sombra-cordas)"/></g>
    <g id="camada-cordas">
        <g transform="matrix(1.022966,0,0,1.022966,17.932091,29.689307)">
            <path id="cordas" d="M733.45,1077.89L734.27,1087.4C734.27,1087.4 713.49,1092.68 713.02,1092.89L711.72,1077.89L711.76,1077.89L664.93,523.63L664.84,523.63L664.23,516.53L663.43,515.31C662.64,515.43 661.03,515.73 659.14,516.14L663.89,514.75L662.08,495.21L662,495.24L661.7,495.32L657.6,445.66L654.26,409.58L651.77,382.95L645.26,315.97L641.13,277.97L640.91,275.97L640.91,275.96L632.85,213.09L628.08,183.78L625.55,120.12L625.54,119.81L625.54,119.51L625.54,119.23L625.55,118.96L625.57,118.7L626.43,116.97L627.4,118L627.72,118.54L628.05,119.17L628.38,119.88L628.73,120.66L629.08,121.5L629.43,122.4L629.79,123.35L630.15,124.34L630.51,125.37L630.87,126.43L631.23,127.5L631.59,128.59L631.94,129.69L636.7,144.61L637.41,146.89L638.09,149.18L638.75,151.48L639.38,153.78L639.97,155.97L640,156.09L640.56,158.28L640.59,158.4L641.14,160.61L641.16,160.72L641.69,162.93L641.72,163.05L642.23,165.26L642.26,165.38L642.75,167.6L642.78,167.72L643.25,169.94L643.28,170.06L643.74,172.28L643.77,172.4L644.21,174.63L644.24,174.75L644.67,176.98L644.7,177.1L645.12,179.33L645.14,179.45L645.55,181.68L645.57,181.8L645.97,184.04L645.99,184.16L646.38,186.4L646.4,186.52L646.78,188.76L646.8,188.88L646.82,188.95L653.11,226.65L654.18,235.97L655.93,251.27L656.63,257.42L657.34,263.57L658.28,271.78L658.51,273.83L658.76,275.97L659.44,281.97L663.33,315.97L665.17,332.01L667.45,351.97L667.91,355.97L668.37,360L668.84,364.1L669.07,366.05L669.99,374.13L670.45,378.14L676.02,433.87L676.39,437.36L682.31,489.3L682,489.39L681.74,489.47L683.64,508.99L684,508.89L684.88,508.63C684.58,508.87 684.33,509.16 684.16,509.49C683.35,511.02 683.8,514.43 684.13,516.95L684.13,516.95C684.22,517.66 684.31,518.29 684.35,518.79L684.81,523.63L684.74,523.63L686.94,546.63L732.14,1062.63L733.36,1077.89ZM687.98,1098.22C687.65,1098.23 682.68,1099.24 680.08,1099.72C673.78,1100.9 666.7,1102.23 666.65,1102.25C666.62,1102.2 666.24,1096.75 665.61,1087.25L665.65,1087.25L644.61,760.69L637.11,648.69L636.61,636.69L629.97,533.69L629.96,533.69L629.49,526.3L628.93,525.45C628.8,525.46 628.72,525.35 628.63,525.24L628.63,525.23C628.59,525.18 628.55,525.12 628.51,525.08L629,524.94L629.42,524.82L628.08,505.15L628,505.17L627.59,505.29L627.06,495.94L623.13,431.97L620.9,398.46L618.35,360.97L617.04,341.96L613.17,291.17L610.34,261.83L610.33,261.66L610.32,261.49L610.32,261.31L610.33,261.13L610.35,260.95L619.83,231.18L620.08,230.39L620.33,229.64L620.58,228.94L620.82,228.29L621.05,227.7L621.27,227.17L621.48,226.73L621.68,226.37L621.86,226.1L621.93,226.02L622,225.95L622.06,225.89L622.13,225.83L622.2,225.78L622.27,225.74L622.34,225.7L622.41,225.66L622.47,225.63L623.51,225.2L624.2,226.5L626.99,246.28L629.37,276.23L634.82,344.14L634.82,344.2L634.98,346.2L640.64,416.2L641.28,424.2L642.93,444.55L644.51,464.2L644.68,466.28L646.21,485.26L647.27,498.29L647.36,499.51L647.13,499.58L648.66,519.2L649.5,518.96L650,518.81L650.42,518.69C649.69,519.02 649.17,519.36 648.95,519.68C648.78,519.93 649.01,525.24 649.5,533.69L649.47,533.69L652.81,586.69L658.61,668.69L687.14,1087.25L687.21,1087.25ZM640.53,1106.72C640.6,1106.8 638.01,1107.11 634.48,1107.53C633.26,1107.68 631.93,1107.84 630.56,1108.01C625.84,1108.59 620.34,1109.07 620.34,1109.07L619.72,1094.07L619.79,1094.07L608.33,819.14L597.23,597.14L595.63,557.14L594.89,544.14L594.86,544.14L594.4,536.55L593.47,535.43C593.02,535.52 592.58,535.61 592.13,535.7L594,535.16L594.19,535.1L593.22,515.33L593,515.4L592.61,515.51L590.44,445.64L590.4,444.74L590.29,442.05L590.26,441.21L590.14,438.43L590.11,437.66L590,434.79L589.97,434.09L589.85,431.14L589.82,430.5L589.7,427.49L589.68,426.92L589.55,423.83L589.53,423.33L589.41,420.18L589.39,419.75L589.26,416.55L589.25,416.19L589.12,412.93L589.11,412.64L588.98,409.35L588.97,409.13L588.84,405.79L588.83,405.64L588.7,402.28L588.56,398.81L586.42,344.7L585.01,309.73L598.54,287.35L599.7,286.64L600.74,287.32L603.9,350.68L604.11,354.85L604.31,358.91L604.65,365.64L604.95,371.64L606.34,399.55L606.65,405.64L606.95,411.64L608.44,441.64L608.64,445.64L610.44,481.64L610.64,485.64L610.84,489.68L611.54,503.61L612.94,529.63L614.59,529.14C614.48,529.28 614.36,529.42 614.24,529.55C613.86,529.98 613.48,530.4 613.2,530.69L613.84,544.14L613.78,544.14L617.33,619.14L626.03,791.14L626.43,795.14L639.89,1094.07L639.96,1094.07Z" style="fill:white;"/>
        </g>
        <g transform="matrix(0.886153,-0.104347,0.08578,0.728475,26.803728,393.83863)">
            <path id="cavalete" d="M752.351,941C769.818,941 784,958.251 784,979.5C784,1000.749 769.818,1018 752.351,1018L590.649,1018C573.182,1018 559,1000.749 559,979.5C559,958.251 573.182,941 590.649,941L752.351,941Z" style="fill:rgb(6,6,5);"/>
        </g>
    </g>
    <g clip-path="url(#sombra-disco)"><use href="#camada-clave" filter="url(#sombra-clave)"/></g>
    <g id="camada-clave" transform="matrix(1.022966,0,0,1.022966,17.932091,29.689307)">
        <path id="clave" d="M334.62,1066.23L332.35,1065.19L323.02,1061.6L306.67,1054.11L291.56,1045.3L289.26,1044.02L289.29,1043.48C284.91,1039.11 280.18,1035.22 276.28,1030.38C263.89,1015.04 256.66,996.95 256.29,977.11C255.74,947.87 269.48,917.37 297.01,904.56L301.65,902.7C301.83,902.52 301.84,902.21 302.03,902.04L315.23,899.44L321.56,898.19C321.81,898.3 321.92,898.63 322.17,898.75L328.16,898.92C332.3,899.24 336.43,900.1 340.4,901.31C367.62,909.58 382.1,937.93 370.97,964.55C369.12,968.99 366.82,973.34 363.68,977.01C355.27,986.87 343.97,993.71 331.25,996.38C324.37,997.83 319.26,997.49 312.97,998.45L312.96,999.43L315.2,1002.62C319.93,1007.92 326.52,1010.87 333.26,1012.72C337.96,1014 342.77,1014.3 347.62,1014.32C363.76,1014.38 379.33,1009.39 393.07,1001.05C396.8,998.8 400.27,996.27 403.68,993.56L407.86,989.98C407.96,989.95 408.08,989.97 408.2,989.99L408.25,990C408.39,990.03 408.53,990.06 408.66,990.02L418.7,978.26L426.14,969.54C426.16,969.4 426.11,969.27 426.06,969.14C426.01,969.01 425.96,968.88 425.97,968.75L429.83,962.32L436.52,948.35C441.98,934.73 444.85,920.14 446.05,905.56C446.53,899.77 447.77,880.47 446.73,875.65L446.25,874.76L445.33,874.34L417.92,875.56C402.75,875.94 387.58,875.15 372.47,873.84C345.04,871.47 315.68,863.72 290.6,852.37L276.65,845.62L270.08,842C269.96,841.99 269.84,842.03 269.73,842.08C269.71,842.09 269.7,842.09 269.68,842.1C269.58,842.13 269.47,842.17 269.36,842.16L265.27,839.31L240.24,821.94C240.2,821.84 240.2,821.72 240.2,821.6C240.2,821.58 240.2,821.56 240.2,821.54C240.21,821.41 240.22,821.28 240.17,821.16L234.96,816.5L225.1,806.56C197.19,775.98 182.01,734.04 180.83,692.87C180.58,684.19 180.62,675.55 181.14,666.88C181.28,664.48 181.49,659.87 182.47,657.14L193.63,605.28L193.21,605.4C194.98,603.45 195.53,599.85 196.34,597.55C198.67,590.96 201.38,584.47 204.43,578.19C214.18,558.03 226.24,539.23 240.19,521.71C273.28,480.17 315.08,446.52 358.02,415.72C371.56,406 385.62,397.05 399.51,387.84L414.82,377.7C415.72,375.47 414.99,371.18 414.48,368.19C414.38,367.63 414.3,367.12 414.23,366.67L411.33,343.86C408,319.51 406.38,294.65 406.44,270.07C406.61,199.1 424.68,129.01 465.74,70.51C480.8,49.06 503.22,23.84 526.26,11C531.8,7.91 540.42,3.44 546.7,3.09C551.55,2.82 560.94,5.5 566.82,8.78C572.7,12.06 577.75,17.81 581.96,22.79C599.93,44.03 612.88,68.15 620.71,94.89L625.08,113.37C630.45,140.17 631.19,159.22 629.24,186.45L625.29,212.64L622.72,224.33C622.76,224.56 623.01,224.72 623.04,224.96L618.46,238.7L608.98,267.09C608.78,267.26 608.46,267.21 608.25,267.38L604.8,275.14C583.65,323.56 549.09,360.85 510.52,395.96C499.08,406.37 486.74,415.92 474.5,425.36C471.5,427.67 459.76,435.52 458.35,437.81C457.42,439.31 457.64,441.43 457.84,443.29C457.89,443.74 457.93,444.18 457.96,444.59L458.89,460.56L461.53,500.47C461.99,507.97 462.01,517.67 463.37,524.79L463.29,524.82L466.88,570.91C471.91,569.3 477.74,567.47 481.47,567.18L485.95,567.29C491.81,567.31 497.57,567.41 503.42,567.98L514.36,569.16C514.59,569.09 514.73,568.81 514.97,568.75L530.02,572.36L547.49,576.56C547.67,576.74 547.66,577.06 547.83,577.25L559.08,581.44C565.46,583.87 571.47,587.18 577.52,590.35C594.64,599.34 609.82,612.03 621.61,627.32C627.44,634.89 632.44,642.87 636.68,651.43L639.88,659.28C651.63,688.68 652.89,722.65 643.57,752.94C640.33,763.49 635.06,773.77 629.25,783.13C613.79,808.05 590.44,827.7 564.82,841.62C546.72,851.46 527.32,859.36 507.27,864.23L487.77,868.64C485.8,869.11 482.23,869.12 480.89,870.84C479.94,872.07 480.09,874.22 480.22,875.94C480.25,876.34 480.28,876.72 480.29,877.06L480.78,893.04C481.32,912.22 481.51,931.38 479.25,950.47C477.95,961.38 475.82,972.24 472.48,982.71L468.34,993.97L466.29,998.53C466.29,998.66 466.35,998.77 466.4,998.89C466.46,999.01 466.52,999.13 466.52,999.26L454.64,1018.32L451.21,1023.82C451.09,1023.88 450.96,1023.88 450.83,1023.88C450.7,1023.88 450.57,1023.89 450.46,1023.94L446.55,1028.49C429.02,1048.49 404.36,1063.31 377.97,1067.68C367.97,1069.34 356.59,1069.23 346.56,1067.79L335.3,1065.73ZM430.69,536.74L430.5,536.8L430.5,534.8L430.47,534.81L429.04,517.31L426.03,480.42L424.5,461.66C424.29,461.47 423.8,461.63 423.7,461.37L422.31,461.82L388.2,485.39L376.48,493.94C376.37,493.96 376.25,493.94 376.13,493.91C376.01,493.88 375.89,493.85 375.78,493.88L361.22,506.09L329.04,533.07C328.99,533.19 329.01,533.32 329.04,533.46C329.06,533.59 329.08,533.72 329.04,533.84L323.64,539.05C314.75,547.86 296.41,566.23 290.78,576.53L291.44,577.13L291,577.26L291,579.26L289.07,579.82L253.31,636.45L253.35,636.7L249.19,648.42C247.18,654.07 245.34,659.78 244.02,665.64C238.18,691.51 237.84,715.58 244.69,741.3C247.79,752.91 253.1,764.37 259.36,774.61L266.53,784.83L269.96,789.14C269.99,789.26 269.96,789.39 269.93,789.51C269.93,789.53 269.92,789.56 269.92,789.58C269.9,789.69 269.88,789.8 269.91,789.9L277.47,797.15L290.44,809.6C290.56,809.63 290.68,809.61 290.8,809.59C290.92,809.57 291.04,809.55 291.15,809.58L300.55,816.19C307.14,820.47 313.91,824.35 321,827.73C342.54,837.99 366.03,843.8 389.71,846.17C404.67,847.67 431.18,848.25 445.47,844.55L446.34,843.12L445.77,827.68L444.63,797.2L440.8,694.76L439.4,657.29L438.75,639.86L437.68,638.57L436.68,638.44C428.23,639.13 407.85,648.31 400.07,652.69C386.82,660.15 374.6,669.24 364.44,680.63L356.92,689.98C354.94,692.72 353.25,696.41 350.87,698.63L345.76,710.57L342.24,718.81C342.27,719.06 342.53,719.24 342.57,719.49C342.59,719.6 342.21,721.76 341.74,724.41L341.73,724.41C341.06,728.18 340.22,732.93 340.1,734.27C339.37,742.32 340.39,750.75 342.59,758.52C346.96,773.94 356.23,787.2 368.69,797.24L379.01,804.27L384.55,807.58L385.47,808.67L384.82,809.41C383.34,810.16 375.19,807.76 373.25,807.18L373.22,807.18C364.7,804.66 356.53,801.48 348.7,797.29C307.4,775.23 287.8,731.54 300.06,686.14C307.57,658.31 324.47,633.75 346.61,615.47C351.44,611.48 362,603.32 367.36,600.71L420.43,584.55L434.11,580.56L430.69,536.74ZM450.58,352.81L451.58,352.88C454.01,352.2 462.66,344.83 465.22,342.87C475.55,334.98 485.42,326.46 495,317.68C508.68,305.14 521.3,291.66 533.32,277.54L543.57,264.6L548.28,258.12C548.49,258 548.78,258.09 548.99,257.97L555.69,246.83L570.38,222.42C570.37,222.16 570.11,221.94 570.1,221.68L576.99,206.13C581.16,195.76 584.21,184.96 586.15,173.95C589.87,152.85 589.01,130.55 581.49,110.33C579.79,105.75 573.98,93.04 569.48,91.14C566.53,89.89 557.41,95.37 553.25,97.87C552.76,98.16 552.35,98.41 552.01,98.61C534.98,108.6 520.62,122.44 508.1,137.61C500.24,147.14 493.18,157.27 486.89,167.9L478.18,183.66C477.97,183.81 477.65,183.74 477.45,183.89L470.53,200.5L461.48,222.18C461.51,222.42 461.75,222.6 461.78,222.85L459.44,230.5L455.32,246.48C451.79,263.21 449.67,279.93 448.79,297C448.07,310.87 448.32,324.65 449.14,338.5C449.42,343.3 449.49,348.21 450.58,352.81ZM471.51,633.79C471.45,634.06 470.98,634.01 470.81,634.23L471.44,650.54L472.62,681.03L476.43,779.52L477.9,817.51L478.61,835.82L479.62,836.53C487.61,834.75 495.4,830.85 502.72,827.19C527.62,814.75 548.77,795.51 561.7,770.73C565.14,764.14 567.94,756.99 569.82,749.79L572.18,738.02C572.32,737.81 572.63,737.76 572.76,737.54L573.03,728.07L573.42,714.1C573.31,713.88 573.01,713.81 572.88,713.59L572.29,709.13L570.3,699.85C561.39,668.16 537.56,647.19 506.57,637.87C495.32,634.48 483.22,632.84 471.51,633.79Z" style="fill:rgb(6,6,5);"/>
    </g>
    <g clip-path="url(#sombra-disco)"><use href="#camada-arco" filter="url(#sombra-arco)"/></g>
    <g id="camada-arco" transform="matrix(1.022966,0,0,1.022966,17.932091,29.689307)">
        <path id="vara" d="M925,407.72L925,406.95L260,607.92L256.25,609.05L241.25,613.58L237.5,614.72L218.75,620.38L215,621.52L196.25,627.18L192.5,628.32L185,630.58L185,631.12L184,630.79L171.24,634.99L146.55,643.12L137.1,646.23L134.51,650.99L137.01,657.4L140.79,667.09C141.03,667.23 141.35,667.14 141.61,667.24L143.28,668.16C144.24,668.44 145.39,668.59 146.58,668.75C150.94,669.33 155.97,670 155.15,677.23L154.16,680.54C153.43,682.04 152.13,683.33 150.93,684.4L140.97,687.61L107.67,698.36L99.14,701.11C98.91,701.07 98.75,700.83 98.52,700.77C97.72,700.52 97.08,700.47 96.48,700.43C95.35,700.35 94.32,700.27 92.46,698.91L89.73,696.04C89.54,695.9 89.25,695.92 89.07,695.76L86.1,687.31L78.34,665.21L77.64,664.43L76.16,664.42C75.28,664.59 74.39,664.84 73.48,665.09C70.68,665.88 67.77,666.7 65.14,665.12C58.61,661.18 59.11,650.07 66.18,647.16L84,641.3L88,639.98L148.42,620.1L152,618.95L156,617.7L160,616.45L164,615.22L168,613.99L172,612.76L176,611.55L180,610.34L184,609.14L185,608.84L188.75,607.73L192.5,606.61L196.25,605.51L200,604.41L203.75,603.32L207.5,602.23L211.25,601.16L215,600.08L218.75,599.02L222.5,597.96L226.25,596.9L230,595.85L233.75,594.81L237.5,593.78L241.25,592.75L245,591.73L248.75,590.71L252.5,589.7L256.25,588.7L260,587.7L925,385.27L925,385.17L1066.54,338.77C1066.54,338.77 1089.62,332.25 1090.13,332.19C1093.21,331.8 1104.46,330.47 1104.46,330.47C1104.46,330.47 1115.28,330.8 1116.94,334.98C1118.39,338.61 1117.86,342.93 1117.38,346.74C1117.36,346.94 1117.33,347.14 1117.31,347.33C1116.15,356.77 1113.37,365.93 1110.46,374.95C1110.1,376.07 1109.52,377.38 1108.91,378.76C1107.58,381.75 1106.1,385.09 1106.3,387.76C1104.16,388.95 1103.39,391.98 1102.26,394.01C1099.83,398.38 1097.19,402.04 1093.41,405.34C1093.41,405.34 1087.91,410.49 1085.19,411.79C1078.31,415.06 1052.16,424.98 1052.16,424.98L1051.96,425.05C1047.55,426.51 1037.92,429.69 1033.73,429.12C1028.61,428.42 1027.78,422.44 1029.96,418.6C1031.9,415.2 1035.87,413.81 1037.76,410.36C1038.38,409.22 1039.22,405.4 1039.39,405.16C1039.55,404.93 1039.9,404.86 1040.04,404.62L1039.16,393.73L1038.72,388.31C1038.56,388.09 1038.23,388.07 1038.04,387.87C1036.99,386.73 1036.4,382.09 1032.04,379.56C1030.33,378.57 1029.27,378.54 1028.35,378.52C1027.83,378.51 1027.35,378.49 1026.82,378.31C1026.59,378.23 1026.44,377.96 1026.19,377.91L1019.5,379.88L997.93,386.23L927.44,407Z" style="fill:rgb(6,6,5);"/>
        <path id="crina" d="M185,635.28L185,634.25L995,399.34L995,399.81L1016.82,393.46L1031.68,389.08C1032,389 1032.35,388.9 1032.72,388.79L1032.77,388.78C1034.44,388.31 1036.45,387.75 1037.91,388.45C1039.95,389.42 1039.86,392.15 1040.1,394.03C1040.28,395.45 1040.45,396.5 1040.59,397.35C1041.09,400.45 1041.15,400.84 1039.53,406.17L1024.2,410.55L1013.09,413.48L995,418.82L995,418.36L185,654.74L185,655.86L177.04,658.2L150.19,666.08C148.52,667.16 147.05,668.35 145.65,669.73L144.63,669.64C142.82,669.15 142,667.69 140.56,666.98C140.33,666.86 140.02,666.93 139.8,666.78L138.37,663.15L134.57,653.52L136.31,651.07C138.73,649.41 147.24,647.55 150.54,646.54L182.04,636.75C183.18,636.41 184.09,635.83 185,635.28Z" style="fill:white;"/>
    </g>
</svg>
